<?xml version="1.0" encoding="utf-8"?>
<!-- Generator: Adobe Illustrator 27.1.1, SVG Export Plug-In . SVG Version: 6.00 Build 0)  -->
<svg version="1.1" id="Layer_1" xmlns="http://www.w3.org/2000/svg" xmlns:xlink="http://www.w3.org/1999/xlink" x="0px" y="0px"
	 viewBox="0 0 228 26" style="enable-background:new 0 0 228 26;" xml:space="preserve">
<style type="text/css">
	.st0{fill-rule:evenodd;clip-rule:evenodd;fill:#6FB143;}
	.st1{fill:#FFFFFF;}
</style>
<path id="Fill-5" class="st0" d="M3.4,11.5c2.2-2.8,5.4-4.6,8.9-4.9V5C5.7,5.5,0,11.1,0,11.1s3.2,9.4,12.3,10.3v-1.7
	C5.6,18.9,3.4,11.5,3.4,11.5L3.4,11.5z M12.3,16.3v1.6c-5-0.9-6.4-6.2-6.4-6.2c1.7-1.7,4-2.8,6.4-3.1v1.7l0,0
	c-1.4,0-2.8,0.6-3.8,1.7C8.5,12,9.5,15.3,12.3,16.3L12.3,16.3z M12.3,2v3h0.6c7.5-0.3,12.4,6.2,12.4,6.2S19.7,18,13.8,18
	c-0.5,0-1,0-1.5-0.1v1.8c0.4,0.1,0.8,0.1,1.3,0.1c5.4,0,9.4-2.8,13.2-6.1c0.6,0.5,3.2,1.8,3.8,2.3c-3.6,3.1-12.1,5.5-16.8,5.5
	c-0.4,0-0.9,0-1.3-0.1V24H33V2H12.3L12.3,2z M12.3,8.6v-2c0.2,0,0.4,0,0.6,0c5.4-0.2,8.9,4.7,8.9,4.7s-3.8,5.3-7.9,5.3
	c-0.5,0-1.1-0.1-1.6-0.3v-6c2.1,0.3,2.5,1.2,3.8,3.3l2.8-2.4c-1.4-1.7-3.4-2.6-5.5-2.7C13,8.5,12.7,8.5,12.3,8.6L12.3,8.6z"/>
<g>
	<g>
		<path class="st1" d="M104.8,6l-5.7,14h4l0.9-2.5h6.7l0.9,2.5h4.4l-5.7-14H104.8z M105,15.1l2.5-6.5l2.5,6.5H105z M46.3,6H39v14
			h4.1V9.1h3.2C47.1,9,48,9.3,48.6,9.9c0.6,0.7,0.9,1.7,0.9,3.7V20h4v-7.7C53.5,6.8,49.9,6,46.3,6z M93.4,20h4.1V6h-4.1V20z
			 M61.7,17.1L58.5,6h-4.4l4.6,14h5.9l4.7-14h-4.2L61.7,17.1z M83.3,6.1h-5.7V20h6.6c3.5,0,4.7-0.6,5.9-1.8c0.9-0.9,1.4-2.9,1.4-5
			c0.1-1.7-0.4-3.4-1.3-4.8C88.7,6.4,86.5,6.1,83.3,6.1z M83.3,17.1h-1.7v-8h1.7c2.5,0,4.2,1.1,4.2,4C87.5,16,85.9,17.1,83.3,17.1z
			 M71,20h4.1V6H71V20z M225.8,13.7c-0.4-0.5-0.9-0.9-1.6-1.2c0.5-0.2,0.9-0.6,1.2-1s0.4-0.9,0.4-1.4V9.8c0-1.2-0.4-2.1-1.3-2.8
			s-2.1-1-3.6-1h-5.7v13.9h6.2c1.6,0,2.8-0.3,3.7-1c0.9-0.7,1.3-1.7,1.3-2.9v-0.5C226.4,14.8,226.2,14.2,225.8,13.7z M218.2,8.4h2.7
			c0.7,0,1.2,0.1,1.6,0.4c0.3,0.3,0.5,0.6,0.5,1.1v0.4c0,0.9-0.7,1.4-2.1,1.4h-2.7V8.4z M223.6,16c0,1-0.7,1.5-2.1,1.5h-3.3v-3.4
			h3.3c0.7,0,1.2,0.1,1.6,0.4c0.3,0.2,0.5,0.6,0.5,1.1V16z M194.8,11.6h-6V6h-2.9v14h2.9v-5.9h6V20h2.9V6h-2.9V11.6z M209.4,14.6
			c0,1.1-0.2,1.8-0.7,2.4s-1.2,0.8-2.1,0.8h-0.2c-0.9,0-1.6-0.3-2.1-0.8s-0.7-1.3-0.7-2.4V6h-2.9v8.5c0,1.9,0.5,3.3,1.5,4.3
			s2.4,1.5,4.2,1.5h0.2c1.8,0,3.2-0.5,4.2-1.5c1-1.1,1.5-2.5,1.5-4.3V6h-2.9V14.6z M174.6,11.7l-2.2-0.3c-1.1-0.1-1.7-0.6-1.7-1.4
			V9.7c0-0.4,0.2-0.8,0.6-1.1c0.4-0.3,1-0.4,1.7-0.4h0.3c1.4,0,2.2,0.5,2.6,1.6l2.6-1.1c-0.4-0.9-1-1.7-1.9-2.2
			c-0.8-0.5-1.9-0.8-3.2-0.8h-0.3c-1.1,0-2,0.2-2.8,0.5c-0.8,0.3-1.4,0.8-1.8,1.4c-0.4,0.7-0.6,1.4-0.6,2.2V10c0,1.2,0.3,2.1,1,2.8
			c0.7,0.6,1.7,1,3,1.2l2.2,0.3c0.6,0.1,1,0.3,1.3,0.6c0.3,0.3,0.4,0.7,0.4,1.1v0.2c0,1.1-0.8,1.6-2.5,1.6H173
			c-1.6,0-2.6-0.7-3.1-1.9l-2.5,1.3c0.8,2.1,2.7,3.1,5.6,3.1h0.3c1.7,0,3.1-0.4,4-1.1c0.9-0.7,1.4-1.8,1.4-3.1v-0.2
			c0-1.2-0.3-2.2-1-2.9S176,11.9,174.6,11.7z M162.7,17.2c-0.6,0.3-1.2,0.5-1.9,0.5h-0.1c-1.1,0-2-0.3-2.6-1
			c-0.6-0.6-0.9-1.7-0.9-3.2v-0.9c0-1.4,0.3-2.5,0.9-3.2c0.7-0.7,1.5-1.1,2.6-1.1h0.1c0.7,0,1.3,0.2,1.8,0.5s0.8,0.8,1,1.5l2.7-1
			c-0.4-1.2-1.1-2.1-2-2.7c-1-0.6-2.2-0.9-3.6-0.9h-0.2c-1.4,0-2.6,0.2-3.5,0.8c-1,0.6-1.7,1.4-2.2,2.4c-0.5,1.1-0.7,2.3-0.7,3.7
			v0.8c0,2.2,0.5,3.9,1.6,5.1c1,1.2,2.6,1.8,4.7,1.8c1.5,0,3.2-0.4,4.1-1c0.9-0.6,1.6-1.5,2-2.6l-2.7-1
			C163.6,16.4,163.2,16.9,162.7,17.2z M133.9,6.8c-1-0.5-2.2-0.8-3.6-0.8h-5.6v14v0.1h5.7c2.1,0,3.7-0.6,4.8-1.8s1.7-2.8,1.7-4.9
			v-0.8c0-1.4-0.3-2.5-0.8-3.5S134.9,7.3,133.9,6.8z M133.8,13.5c0,1.3-0.3,2.3-0.9,3c-0.6,0.7-1.5,1-2.7,1h-2.6V8.6h2.6
			c1.2,0,2.1,0.3,2.7,1c0.6,0.7,0.9,1.7,0.9,3V13.5z M149,6.5c-1-0.5-2.1-0.8-3.5-0.8h-0.2c-1.4,0-2.5,0.2-3.5,0.8
			c-0.9,0.6-1.7,1.4-2.2,2.4c-0.5,1.1-0.8,2.3-0.8,3.7v0.8c0,1.5,0.3,2.7,0.8,3.7s1.2,1.8,2.2,2.4c1,0.5,2.1,0.8,3.5,0.8h0.2
			c1.4,0,2.5-0.2,3.5-0.8c0.9-0.6,1.7-1.4,2.2-2.4c0.5-1.1,0.8-2.3,0.8-3.7v-0.8c0-1.5-0.3-2.7-0.8-3.7S150,7.1,149,6.5z
			 M149.1,13.4c0,1.4-0.4,2.5-1,3.2c-0.6,0.7-1.5,1.1-2.6,1.1h-0.2c-1.1,0-1.9-0.3-2.6-1.1c-0.7-0.7-1-1.8-1-3.2v-0.9
			c0-1.4,0.4-2.5,1-3.2c0.6-0.7,1.5-1.1,2.6-1.1h0.2c1.1,0,2,0.4,2.6,1.1c0.7,0.7,1,1.8,1,3.2V13.4z M118.2,19.2
			c0-0.4-0.3-0.5-0.6-0.5H117v1.6h0.3v-0.6h0.2l0.3,0.6h0.3l-0.4-0.7C118,19.6,118.2,19.4,118.2,19.2z M117.5,19.5h-0.2v-0.5h0.2
			c0.2,0,0.3,0.1,0.3,0.2C117.9,19.4,117.8,19.5,117.5,19.5z M117.6,18c-0.8,0-1.5,0.7-1.5,1.5s0.7,1.5,1.5,1.5s1.5-0.7,1.5-1.5
			S118.4,18,117.6,18z M117.6,20.7c-0.7,0-1.2-0.6-1.2-1.2s0.6-1.2,1.2-1.2s1.2,0.6,1.2,1.2S118.3,20.7,117.6,20.7z"/>
	</g>
</g>
</svg>
