<svg xmlns="http://www.w3.org/2000/svg" xmlns:xlink="http://www.w3.org/1999/xlink" id="Layer_1" x="0" y="0" version="1.1" viewBox="0 0 155.2 30" xml:space="preserve" style="enable-background:new 0 0 155.2 30"><style type="text/css">.st0{fill:#76b900}</style><path d="M94.8,5.9v19.2h5.4V5.9H94.8z M52.2,5.9v19.2h5.5V10.2l4.3,0c1.4,0,2.4,0.3,3,1.1c0.9,0.9,1.2,2.4,1.2,5.1v8.8h5.3V14.5 c0-7.6-4.8-8.6-9.5-8.6L52.2,5.9z M103.6,5.9v19.2h8.8c4.7,0,6.2-0.8,7.9-2.5c1.2-1.2,1.9-3.9,1.9-6.9c0-2.7-0.6-5.1-1.8-6.6 c-2-2.7-4.9-3.2-9.2-3.2H103.6z M108.9,10.1h2.3c3.4,0,5.6,1.5,5.6,5.4s-2.2,5.5-5.6,5.5h-2.3V10.1z M87,5.9l-4.5,15.2L78.2,5.9 h-5.9l6.2,19.2h7.8l6.2-19.2H87z M124.7,25.1h5.4V5.9h-5.4V25.1z M139.8,5.9l-7.6,19.2h5.3l1.2-3.4h8.9l1.1,3.4h5.8l-7.6-19.2H139.8 z M143.4,9.4l3.3,9H140L143.4,9.4z"/><path d="M17.3,9.1V6.5c0.3,0,0.5,0,0.8,0c7.2-0.2,12,6.2,12,6.2s-5.1,7.1-10.6,7.1c-0.7,0-1.4-0.1-2.1-0.3v-8 c2.8,0.3,3.4,1.6,5.1,4.4l3.8-3.2c0,0-2.7-3.6-7.4-3.6C18.2,9,17.8,9.1,17.3,9.1 M17.3,0.4v3.9l0.8,0c10-0.3,16.6,8.2,16.6,8.2 s-7.5,9.1-15.3,9.1c-0.7,0-1.3-0.1-2-0.2v2.4C17.8,24,18.4,24,19,24c7.3,0,12.6-3.7,17.7-8.1c0.8,0.7,4.3,2.3,5,3 c-4.8,4.1-16.1,7.3-22.6,7.3c-0.6,0-1.2,0-1.8-0.1v3.4H45V0.4H17.3z M17.3,19.4v2.1c-6.7-1.2-8.6-8.2-8.6-8.2s3.2-3.6,8.6-4.2v2.3h0 c-2.8-0.3-5,2.3-5,2.3S13.5,18.1,17.3,19.4 M5.3,13c0,0,4-5.9,12-6.5V4.3C8.4,5,0.8,12.5,0.8,12.5S5.1,25,17.3,26.2v-2.3 C8.4,22.8,5.3,13,5.3,13L5.3,13z" class="st0"/></svg>