<svg xmlns="http://www.w3.org/2000/svg" viewBox="0 0 24 24"><defs><style>.a{fill:none;stroke:currentColor;stroke-linecap:round;stroke-linejoin:round;}</style></defs><line class="a" x1="0.441" y1="19.5" x2="23.441" y2="19.5"/><path class="a" d="M4.441,19.5V15a.5.5,0,0,0-.5-.5h-2a.5.5,0,0,0-.5.5v4.5"/><path class="a" d="M10.441,19.5V10a.5.5,0,0,0-.5-.5h-2a.5.5,0,0,0-.5.5v9.5"/><path class="a" d="M16.441,19.5V12a.5.5,0,0,0-.5-.5h-2a.5.5,0,0,0-.5.5v7.5"/><path class="a" d="M22.441,19.5V5a.5.5,0,0,0-.5-.5h-2a.5.5,0,0,0-.5.5V19.5"/></svg>
