<svg xmlns="http://www.w3.org/2000/svg" id="Light" viewBox="0 0 24 24"><defs><style>.cls-1{fill:none;stroke:currentColor;stroke-linecap:round;stroke-linejoin:round}</style></defs><rect width="19" height="23" x="2.5" y=".5" class="cls-1" rx="2" ry="2"/><path d="M6.1,5.967,5.225,4.8a.5.5,0,0,1,0-.6L6.1,3.033a.5.5,0,0,1,.8,0L7.775,4.2a.5.5,0,0,1,0,.6L6.9,5.967A.5.5,0,0,1,6.1,5.967Z" class="cls-1"/><path d="M17.1,20.967,16.225,19.8a.5.5,0,0,1,0-.6l.875-1.167a.5.5,0,0,1,.8,0l.875,1.167a.5.5,0,0,1,0,.6L17.9,20.967A.5.5,0,0,1,17.1,20.967Z" class="cls-1"/><path d="M11.6,15.467,9.225,12.3a.5.5,0,0,1,0-.6L11.6,8.533a.5.5,0,0,1,.8,0L14.775,11.7a.5.5,0,0,1,0,.6L12.4,15.467A.5.5,0,0,1,11.6,15.467Z" class="cls-1"/></svg>