<svg xmlns="http://www.w3.org/2000/svg" viewBox="0 0 24 24"><defs><style>.a{fill:none;stroke:currentColor;stroke-linecap:round;stroke-linejoin:round}</style></defs><path d="M23.5,13a2,2,0,0,1-2,2H2.5a2,2,0,0,1-2-2V11a2,2,0,0,1,2-2h19a2,2,0,0,1,2,2Z" class="a"/><path d="M4.75,11.75A.25.25,0,1,0,5,12a.25.25,0,0,0-.25-.25h0" class="a"/><path d="M8.25,11.75A.25.25,0,1,0,8.5,12a.25.25,0,0,0-.25-.25h0" class="a"/><path d="M23.5,7a2,2,0,0,1-2,2H2.5a2,2,0,0,1-2-2V5a2,2,0,0,1,2-2h19a2,2,0,0,1,2,2Z" class="a"/><path d="M4.75,5.75A.25.25,0,1,0,5,6a.25.25,0,0,0-.25-.25h0" class="a"/><path d="M8.25,5.75A.25.25,0,1,0,8.5,6a.25.25,0,0,0-.25-.25h0" class="a"/><path d="M23.5,19a2,2,0,0,1-2,2H2.5a2,2,0,0,1-2-2V17a2,2,0,0,1,2-2h19a2,2,0,0,1,2,2Z" class="a"/><path d="M4.75,17.75A.25.25,0,1,0,5,18a.25.25,0,0,0-.25-.25h0" class="a"/><path d="M8.25,17.75A.25.25,0,1,0,8.5,18a.25.25,0,0,0-.25-.25h0" class="a"/></svg>