<svg xmlns="http://www.w3.org/2000/svg" xmlns:xlink="http://www.w3.org/1999/xlink" version="1.1" viewBox="0 0 26 25"><g id="Page-1" fill="none" fill-rule="evenodd" stroke="none" stroke-width="1"><g id="DOM" fill="currentColor" fill-rule="nonzero" transform="translate(1.000000, 1.000000)"><path id="Fill-1" stroke="currentColor" stroke-width=".3" d="M21.763,3.92484466 C21.2792667,3.92484466 20.8278,3.7383035 20.4914,3.39946981 C20.4122667,3.31919088 20.2841333,3.30784387 20.1914,3.37230577 C19.0040667,4.19289742 17.4198667,5.90397285 16.5604,9.40707736 L15.64,9.40707736 C16.5881333,5.37840337 18.4730667,3.43909675 19.903,2.51933394 C19.9812667,2.46896335 20.0206667,2.37745419 20.0024,2.287807 C19.9960667,2.2564973 19.9976667,2.22516166 19.9976667,2.18755888 C19.9976667,1.22956399 20.7896,0.450110912 21.763,0.450110912 C22.7414,0.450110912 23.5374667,1.22956399 23.5374667,2.18755888 C23.5374667,3.14556026 22.7414,3.92484466 21.763,3.92484466 Z M19.2880667,10.3071824 L19.2880667,22.5499475 L4.66638667,22.5499475 L4.66638667,10.3071824 C4.66638667,10.0632445 4.87492667,9.85719476 5.12201333,9.85719476 L18.8416,9.85719476 C19.0876667,9.85719476 19.2880667,10.0590923 19.2880667,10.3071824 Z M3.79144,3.39104228 C3.69901333,3.32671662 3.57215333,3.33638331 3.49217333,3.41561773 C3.15802,3.74398674 2.71222,3.92484466 2.23704,3.92484466 C1.25860667,3.92484466 0.462533333,3.14556026 0.462533333,2.18755888 C0.462533333,1.22956399 1.25860667,0.450110912 2.23704,0.450110912 C3.21042667,0.450110912 4.00237333,1.22956399 4.00237333,2.18755888 C4.00237333,2.23700173 4.00347333,2.27950921 3.99639333,2.32205562 C3.98172,2.40862115 4.02004,2.49568624 4.09483333,2.54495391 C5.51153333,3.47900915 7.3778,5.42511489 8.31426667,9.40707736 L7.39393333,9.40707736 C6.54226667,5.9247984 4.97006667,4.21454043 3.79144,3.39104228 Z M11.3732,3.82121645 C10.6759333,3.57650647 10.2074,2.91987874 10.2074,2.18755888 C10.2074,1.22956399 11.0034,0.450110912 11.9818667,0.450110912 C12.9552667,0.450110912 13.7468667,1.22956399 13.7468667,2.18755888 C13.7468667,2.92001498 13.2783333,3.57650647 12.5807333,3.82121645 C12.4892,3.85346038 12.428,3.93804715 12.428,4.03291695 L12.428,9.40707736 L11.5259333,9.40707736 L11.5259333,4.03291695 C11.5259333,3.93804715 11.4647333,3.85346038 11.3732,3.82121645 Z M21.763,0 C20.5346667,0 19.5351333,0.981311725 19.5351333,2.18755888 C19.5351333,2.19786137 19.5351333,2.20796922 19.5351333,2.21780459 C18.0377333,3.21874813 16.1191333,5.2725888 15.1688,9.40707736 L12.8906,9.40707736 L12.8906,4.18460613 C13.6856667,3.83780553 14.2094,3.05464797 14.2094,2.18755888 C14.2094,0.981311725 13.2102,0 11.9818667,0 C10.7484667,0 9.7448,0.981311725 9.7448,2.18755888 C9.7448,3.05464797 10.2682667,3.83780553 11.0634,4.18460613 L11.0634,9.40707736 L8.78553333,9.40707736 C7.84673333,5.31988421 5.94713333,3.26091177 4.46446,2.2463635 C4.46476667,2.22732855 4.46491333,2.20783298 4.46491333,2.18755888 C4.46491333,0.981311725 3.46550667,0 2.23704,0 C1.0035,0 0,0.981311725 0,2.18755888 C0,3.39364385 1.0035,4.3749945 2.23704,4.3749945 C2.76883333,4.3749945 3.27147333,4.19536924 3.67248667,3.86573513 C4.75478667,4.67424666 6.12813333,6.28038985 6.915,9.40707736 L5.12201333,9.40707736 C4.61573333,9.40707736 4.20382667,9.81080762 4.20382667,10.3071824 L4.20382667,22.7750062 C4.20382667,22.8993107 4.30732,23 4.43511333,23 L19.5193333,23 C19.6471333,23 19.7506,22.8993107 19.7506,22.7750062 L19.7506,10.3071824 C19.7506,9.81080762 19.3429333,9.40707736 18.8416,9.40707736 L17.0395333,9.40707736 C17.8332667,6.26222426 19.2167333,4.65430344 20.3068667,3.84808206 C20.7094667,4.18490456 21.2297333,4.3749945 21.763,4.3749945 C22.9963333,4.3749945 24,3.39364385 24,2.18755888 C24,0.981311725 22.9963333,0 21.763,0 L21.763,0 Z"/><path id="Fill-3" stroke="currentColor" stroke-width=".3" d="M11.3953502,1.99612518 C11.3953502,1.66306034 11.6683002,1.39220175 12.0040458,1.39220175 C12.3352328,1.39220175 12.6046498,1.66306034 12.6046498,1.99612518 C12.6046498,2.3334803 12.3352328,2.60782651 12.0040458,2.60782651 C11.6683002,2.60782651 11.3953502,2.3334803 11.3953502,1.99612518 Z M13,1.99612518 C13,1.44690707 12.5531369,1 12.0040458,1 C11.450396,1 11,1.44690707 11,1.99612518 C11,2.54962792 11.450396,3 12.0040458,3 C12.5531369,3 13,2.54962792 13,1.99612518 L13,1.99612518 Z"/><path id="Fill-4" stroke="currentColor" stroke-width=".3" d="M21.9960972,2.60782651 C21.6646725,2.60782651 21.3952938,2.3334803 21.3952938,1.99612518 C21.3952938,1.66306034 21.6646725,1.39220175 21.9960972,1.39220175 C22.331795,1.39220175 22.6046492,1.66306034 22.6046492,1.99612518 C22.6046492,2.3334803 22.331795,2.60782651 21.9960972,2.60782651 Z M21.9960972,1 C21.4467994,1 21,1.44690707 21,1.99612518 C21,2.54962792 21.4467994,3 21.9960972,3 C22.5496681,3 23,2.54962792 23,1.99612518 C23,1.44690707 22.5496681,1 21.9960972,1 L21.9960972,1 Z"/><path id="Fill-5" stroke="currentColor" stroke-width=".3" d="M2.00399137,2.60782651 C1.66839693,2.60782651 1.39534254,2.3334803 1.39534254,1.99612518 C1.39534254,1.66306034 1.66839693,1.39220175 2.00399137,1.39220175 C2.33530101,1.39220175 2.60468025,1.66306034 2.60468025,1.99612518 C2.60468025,2.3334803 2.33530101,2.60782651 2.00399137,2.60782651 Z M2.00399137,1 C1.45036709,1 1,1.44690707 1,1.99612518 C1,2.54962792 1.45036709,3 2.00399137,3 C2.5531827,3 3,2.54962792 3,1.99612518 C3,1.44690707 2.5531827,1 2.00399137,1 L2.00399137,1 Z"/><g id="health-insurance" transform="translate(6.000000, 13.000000)"><path id="Shape" stroke="currentColor" stroke-width=".3" d="M5.88514885,7.95960685 C5.95528643,8.01346438 6.0504021,8.01346438 6.12053964,7.95960685 C8.12555778,6.41876019 9.3598609,4.94949265 9.8082624,3.57896227 L10.8353496,3.57896227 C10.9326704,3.86897296 11.2141462,4.04293672 11.5019038,3.99092048 C11.7896615,3.93890424 12,3.67603812 12,3.36843533 C12,3.06083254 11.7896615,2.79796643 11.5019038,2.74595019 C11.2141462,2.69393394 10.9326704,2.8678977 10.8353496,3.15790839 L9.91936366,3.15790839 C9.95340396,3.00271824 9.97710739,2.84521117 9.9903006,2.68653858 C10.0616143,2.04054877 9.88024276,1.39180854 9.48794703,0.889691143 C9.08841141,0.328880677 8.46140805,-0.000791281309 7.79585081,6.21724894e-15 C7.13608715,0.0271838279 6.50433441,0.288140733 6.00284426,0.74063807 C5.50135413,0.288140733 4.86960136,0.0271838279 4.20983771,6.21724894e-15 C3.54417691,-0.000758009372 2.91706538,0.328892947 2.51734183,0.889691143 C2.12524239,1.39191113 1.94395992,2.04059084 2.0151881,2.68653858 C2.13568102,4.30443811 3.43772389,6.07875915 5.88514885,7.95960685 Z M11.3980495,3.15790839 C11.5084084,3.15790839 11.597872,3.25216451 11.597872,3.36843533 C11.597872,3.48470615 11.5084084,3.57896227 11.3980495,3.57896227 C11.2876906,3.57896227 11.1982271,3.48470615 11.1982271,3.36843533 C11.1982271,3.25216451 11.2876906,3.15790839 11.3980495,3.15790839 Z M2.81447777,1.17116566 C2.82381906,1.16142561 2.83218869,1.15070294 2.83945557,1.13916557 C3.16427402,0.686864379 3.67149918,0.421020147 4.20983771,0.421020147 C5.13581479,0.421020147 5.8543762,1.16400774 5.86156981,1.17137619 C5.89905015,1.21090831 5.94990945,1.23312093 6.00294417,1.23312093 C6.05597886,1.23312093 6.1068382,1.21090831 6.14431856,1.17137619 C6.15151213,1.16358669 6.86487814,0.421020147 7.79585081,0.421020147 C8.33466727,0.418916108 8.8427552,0.685164237 9.16623297,1.13916557 C9.17349982,1.15070294 9.18186943,1.16142561 9.19121075,1.17116566 C9.51135429,1.5865383 9.6561955,2.12185676 9.59205453,2.65264373 C9.57876462,2.82325772 9.55135135,2.99232212 9.51012733,3.15790839 L7.917143,3.15790839 L7.17540222,1.78948328 C7.13747399,1.71893471 7.0644627,1.67760322 6.98769057,1.68322023 C6.91091844,1.68883723 6.84403045,1.74040439 6.81572186,1.81579915 L5.8276,4.42107003 L5.19456258,2.25390571 C5.17137799,2.1744925 5.10603078,2.11687299 5.0277498,2.10681956 C4.94946881,2.09676613 4.87289728,2.13615937 4.83228454,2.20737926 L4.29096561,3.15790839 L3.005508,3.15790839 L3.005508,3.57896227 L4.40426492,3.57896227 C4.47439968,3.57894821 4.53939333,3.54019611 4.57551273,3.47685671 L4.94378545,2.82906531 L5.61139214,5.11454577 C5.63666041,5.19943668 5.7098508,5.25842886 5.79422966,5.26191463 L5.80302184,5.26191463 C5.88478756,5.26194626 5.95832179,5.20949113 5.98865687,5.12949318 L7.03372811,2.37643239 L7.62780018,3.47117247 C7.66294997,3.53741198 7.72921682,3.57859419 7.80124601,3.57896227 L9.37984312,3.57896227 C9.00997183,4.57096521 8.08998943,5.90149547 6.00284426,7.52823711 C3.18714658,5.33370432 2.49576101,3.67748888 2.41483293,2.66948589 C2.34581908,2.13332133 2.49047953,1.59097057 2.81447777,1.17116566 Z"/><rect id="Rectangle" width="2" height="1" x="0" y="2.776"/></g></g></g></svg>