<svg xmlns="http://www.w3.org/2000/svg" xmlns:xlink="http://www.w3.org/1999/xlink" id="Layer_1" x="0" y="0" version="1.1" viewBox="0 0 512 512" style="enable-background:new 0 0 512 512" xml:space="preserve"><style type="text/css">.st0{fill-rule:evenodd;clip-rule:evenodd}</style><g><path d="M109.7,0h182.9v36.6H109.7c-20.2,0-36.6,16.4-36.6,36.6v365.7c0,20.2,16.4,36.6,36.6,36.6h292.6 c20.2,0,36.6-16.4,36.6-36.6v-256h36.6v256c0,40.4-32.7,73.1-73.1,73.1H109.7c-40.4,0-73.1-32.7-73.1-73.1V73.1 C36.6,32.7,69.3,0,109.7,0z"/><path d="M292.6,128V0l182.9,182.9h-128C317.1,182.9,292.6,158.3,292.6,128z"/><path d="M169.9,297.9c7.1-7.1,18.7-7.2,25.9,0l0,0l60.2,60.2l60.2-60.2c7.2-7.1,18.7-7.1,25.9,0 c7.1,7.2,7.1,18.7,0,25.9L269,397c-7.1,7.1-18.7,7.2-25.9,0l0,0l-73.1-73.1C162.8,316.7,162.7,305.1,169.9,297.9L169.9,297.9z" class="st0"/><path d="M256,182.9c10.1,0,18.3,8.2,18.3,18.3v146.3c0,10.1-8.2,18.3-18.3,18.3s-18.3-8.2-18.3-18.3V201.1 C237.7,191,245.9,182.9,256,182.9z" class="st0"/></g></svg>