<svg xmlns="http://www.w3.org/2000/svg" viewBox="0 0 230.33 286.46"><path d="M210,160.17c-1.57-1.7-3.05-3.39-4.56-5l-4.52-4.63c-2.91-3.11-5.95-5.89-8.92-8.77-.75-.71-1.48-1.44-2.25-2.14l-2.33-2.06-4.73-4.17c-1.62-1.39-3.33-2.7-5.05-4.1s-3.46-2.82-5.36-4.15l-.74-.53a67.34,67.34,0,0,0-1.05-9.22c-2.8-15.15-6.85-26.76-16.18-25.37-7.15,1.06-8.53,8.92-7.53,19.37l-1.77-.88c-1.34-.7-2.73-1.29-4.11-1.88l-4.18-1.75c-2.82-1.08-5.68-2-8.53-3a113.3,113.3,0,0,0-17.26-3.71,92.65,92.65,0,0,0-10.47-.89c.11-.29.22-.6.33-.9l2.59-6.53,2.74-6.07c.85-2,1.84-3.87,2.78-5.72s1.84-3.71,2.81-5.48l3-5.24,1.48-2.6c.51-.85,1.06-1.68,1.59-2.53,2.15-3.35,4.25-6.79,6.72-10.11L128.14,47c1.3-1.72,2.71-3.42,4.13-5.2a248.22,248.22,0,0,1,21.17-23c-9.39,7.6-17.26,14.09-24,20.38-1.69,1.56-3.38,3-5,4.55l-4.64,4.52c-3.11,2.91-5.89,5.95-8.77,8.92-.71.75-1.44,1.49-2.14,2.25l-2,2.33-4.18,4.74c-1.39,1.61-2.7,3.32-4.1,5S95.77,75,94.45,76.89s-2.76,3.82-4.2,5.81L86.1,89.13c-1.77,2.88-3.56,5.94-5.33,9.24a38.84,38.84,0,0,0-12.33.41c-11.54,2.13-20.28,4.79-19.08,13.73s11.15,8.16,22.67,6c-.27.81-.54,1.62-.8,2.42a113.55,113.55,0,0,0-3.71,17.26,103.85,103.85,0,0,0-.93,16.58c0,.31,0,.61,0,.92L65.06,155c-2-.85-3.87-1.84-5.73-2.78s-3.7-1.84-5.48-2.81l-5.23-3c-.87-.49-1.74-1-2.6-1.48s-1.69-1.06-2.53-1.58c-3.35-2.15-6.79-4.25-10.12-6.73L28.22,133c-1.72-1.3-3.42-2.7-5.2-4.12A250.93,250.93,0,0,1,0,107.66c7.6,9.39,14.09,17.25,20.37,24,1.56,1.69,3.05,3.38,4.56,5l4.52,4.64c2.91,3.11,5.95,5.89,8.92,8.76.75.71,1.48,1.45,2.24,2.14L43,154.23l4.73,4.18c1.62,1.38,3.33,2.7,5,4.09s3.47,2.83,5.37,4.15l5.82,4.2,3.07,2a42.86,42.86,0,0,0,.71,7.37c2.13,11.53,7.31,20.61,13.73,19.07,4.84-1.17,7-6.92,6.89-14.61l1.16.5,4.18,1.75c2.81,1.09,5.68,2,8.53,3a113,113,0,0,0,17.26,3.71,103.61,103.61,0,0,0,16.09.93l-1.57,4-2.74,6.07c-.85,2-1.84,3.86-2.78,5.72s-1.83,3.71-2.81,5.48l-3,5.24-1.48,2.6c-.51.85-1.06,1.68-1.59,2.53-2.15,3.35-4.24,6.78-6.72,10.11l-3.71,5.15c-1.3,1.72-2.71,3.42-4.12,5.2a249.88,249.88,0,0,1-21.18,23c9.4-7.59,17.26-14.08,24-20.37,1.7-1.56,3.39-3,5-4.55l4.63-4.52c3.11-2.91,5.89-5.95,8.77-8.92.71-.75,1.44-1.49,2.14-2.25s1.37-1.55,2.06-2.33l4.17-4.74c1.39-1.61,2.7-3.33,4.1-5s2.82-3.47,4.15-5.37l4.19-5.81,4.16-6.43c1.43-2.34,2.88-4.8,4.32-7.4,1.24-.32,2.44-.65,3.59-1,.64,0,1.29-.05,1.94-.11,11.7-.95,20.36-4.53,20.36-11.74,0-6-7.19-8.43-16.37-8.5.35-1,.69-2.06,1-3.08a113.46,113.46,0,0,0,3.72-17.27,97.19,97.19,0,0,0,.89-10.73l.32.17c1.85.95,3.7,1.83,5.48,2.81l5.23,3,2.6,1.48c.86.51,1.68,1.06,2.53,1.59,3.35,2.15,6.79,4.25,10.11,6.72l5.15,3.71c1.73,1.3,3.43,2.71,5.21,4.12a251.18,251.18,0,0,1,23,21.18C222.73,174.76,216.24,166.9,210,160.17ZM92.33,165.22c-1.91-.54-3.74-1.11-5.54-1.69A236.88,236.88,0,0,1,94,118.14,239.26,239.26,0,0,1,138,126.6c4.33,1.22,8.33,2.56,12.12,3.93a239,239,0,0,1-7.82,43.63A238.49,238.49,0,0,1,92.33,165.22Z" style="fill:#000"/><circle cx="164.06" cy="8.44" r="8.44" transform="translate(42.09 118.48) rotate(-45)" style="fill:#fff"/><circle cx="70.24" cy="278.02" r="8.44" transform="translate(-62 23.58) rotate(-13.28)" style="fill:#fff"/></svg>
