<svg xmlns="http://www.w3.org/2000/svg" id="Layer_1" data-name="Layer 1" viewBox="0 0 32 32"><defs><style>.cls-1{fill:none}.cls-2{fill:#36424a}</style></defs><title>rocket-turtle-limed-spruce</title><g id="Group_2475" data-name="Group 2475"><ellipse id="Ellipse_672" cx="27.03" cy="4.93" class="cls-1" data-name="Ellipse 672" rx="6.08" ry="5.98"/></g><path d="M19.7,20.77l-1.15.12c-.24,0-.36.24-.42.48l-.18.85h0c-.06.3.24.3.48.36l1.21-.36c.48,0,.6-.85.6-1.09A.46.46,0,0,0,19.7,20.77Z" class="cls-2"/><polygon points="5.5 26.5 14.7 18.05 13.68 17.21 5.5 26.5" class="cls-2"/><path d="M25.23,13l-.9.13a.47.47,0,0,0-.54.42l-.06,1.21a.43.43,0,0,0,0,0,.43.43,0,0,0,.43.43l.66.18a.49.49,0,0,0,.54-.43l.3-1.56v0A.41.41,0,0,0,25.23,13Z" class="cls-2"/><path d="M26.5,9.18a3.67,3.67,0,1,0-5.84,3,1.15,1.15,0,0,0-.42.23l-.72-.66h0a.46.46,0,0,0-.66,0l-4.63,4.1-.06.06a.39.39,0,0,0,.06.54l1.08,1a.56.56,0,0,0,.79-.18c.12-.18,1-1.21,1.8-2.11a20.26,20.26,0,0,1,2.05-2c.12-.07.18-.12.06.06a22.54,22.54,0,0,0-2.47,3.5c-.3.6-1.62,3.13-1,3.62h0c.06.07.18.13.48.07a6,6,0,0,0,1.5-.37,8.28,8.28,0,0,0,2.29-1.51,8,8,0,0,0,2.46-3.74,3,3,0,0,0-.45-1.93A3.73,3.73,0,0,0,26.5,9.18Zm-6.5,0V9.09a2.73,2.73,0,0,1,2.77-2.68,2.78,2.78,0,0,1,0,5.55,2.63,2.63,0,0,1-.49-.06v-.49a2.58,2.58,0,0,0,1.38-.9c.67-.67.67-2.11-.3-2.42-.78-.24-1.68.55-1.92,1.21a2.25,2.25,0,0,0,.12,2.11v.25A2.83,2.83,0,0,1,20,9.18Z" class="cls-2"/></svg>