<?xml version="1.0" encoding="UTF-8"?>
<svg width="20px" height="21px" viewBox="0 0 20 21" version="1.1" xmlns="http://www.w3.org/2000/svg" xmlns:xlink="http://www.w3.org/1999/xlink">
    <!-- Generator: Sketch 53.2 (72643) - https://sketchapp.com -->
    <title>Shape</title>
    <desc>Created with Sketch.</desc>
    <g id="Page-1" stroke="none" stroke-width="1" fill="none" fill-rule="evenodd">
        <g id="search" fill="#00AD69" fill-rule="nonzero">
            <path d="M19.7653837,19.4570651 L14.2029516,13.8425503 C15.29148,12.4779837 15.947722,10.7488381 15.947722,8.86865273 C15.947722,4.46766478 12.3800572,0.9 7.973861,0.9 C3.56766478,0.9 0,4.47287305 0,8.873861 C0,13.2748489 3.56766478,16.8425137 7.973861,16.8425137 C9.88008773,16.8425137 11.6248581,16.1758552 12.9998413,15.0612855 L18.5258155,20.6393424 C18.6924802,20.8164235 18.921644,20.9049641 19.1455996,20.9049641 C19.3591387,20.9049641 19.5726777,20.8268401 19.7341341,20.670592 C20.0778799,20.342471 20.0882964,19.8008109 19.7653837,19.4570651 Z M7.973861,15.128993 C6.3020064,15.128993 4.72910894,14.4779593 3.5468317,13.295682 C2.36455447,12.1134048 1.71352075,10.5405073 1.71352075,8.873861 C1.71352075,7.2020064 2.36455447,5.62910894 3.5468317,4.45203997 C4.72910894,3.26976274 6.3020064,2.61872902 7.973861,2.61872902 C9.64571559,2.61872902 11.2186131,3.26976274 12.4008903,4.45203997 C13.5831675,5.63431721 14.2342012,7.20721467 14.2342012,8.873861 C14.2342012,10.5457156 13.5831675,12.1186131 12.4008903,13.295682 C11.2186131,14.4779593 9.64571559,15.128993 7.973861,15.128993 Z" id="Shape"></path>
        </g>
    </g>
</svg>