<?xml version="1.0" encoding="utf-8"?>
<!-- Generator: Adobe Illustrator 25.0.1, SVG Export Plug-In . SVG Version: 6.00 Build 0)  -->
<svg version="1.1" id="Layer_1" xmlns="http://www.w3.org/2000/svg" xmlns:xlink="http://www.w3.org/1999/xlink" x="0px" y="0px"
	 viewBox="0 0 20 21" style="enable-background:new 0 0 20 21;" xml:space="preserve">
<style type="text/css">
	.st0{fill:#76B900;}
</style>
<desc>Created with Sketch.</desc>
<g id="Page-1">
	<g id="search">
		<path id="Shape" class="st0" d="M19.8,19.5l-5.6-5.6c1.1-1.4,1.7-3.1,1.7-5c0-4.4-3.6-8-8-8s-8,3.6-8,8s3.6,8,8,8
			c1.9,0,3.7-0.7,5-1.8l5.5,5.6c0.2,0.2,0.4,0.3,0.6,0.3c0.2,0,0.4-0.1,0.6-0.2C20.1,20.3,20.1,19.8,19.8,19.5z M8,15.1
			c-1.7,0-3.2-0.7-4.4-1.8s-1.8-2.8-1.8-4.4c0-1.7,0.7-3.2,1.8-4.4C4.7,3.3,6.3,2.6,8,2.6s3.2,0.7,4.4,1.8s1.8,2.8,1.8,4.4
			c0,1.7-0.7,3.2-1.8,4.4C11.2,14.5,9.6,15.1,8,15.1z"/>
	</g>
</g>
</svg>
