<svg id="Layer_1" data-name="Layer 1" xmlns="http://www.w3.org/2000/svg" viewBox="0 0 64.46 64.46"><defs><style>.cls-1{fill:#36424a;}.cls-2,.cls-3{fill:none;stroke:#36424a;}.cls-2{stroke-miterlimit:10;stroke-width:0.92px;}.cls-3{stroke-width:2.79px;}</style></defs><title>rocket-turtle-gray-dark</title><path id="Union_115" data-name="Union 115" class="cls-1" d="M24.86,36.08,28,38.72,0,64.46ZM38,51.21l.59-2.64c.19-.76.59-1.52,1.37-1.52l3.52-.37A1.37,1.37,0,0,1,45,47.8v0c0,.75-.39,3.21-1.76,3.21l-3.72,1.14C38.75,52.16,37.78,52.16,38,51.21Zm-4.5-5.67c-1.76-1.52,2.15-9.09,3.13-11A77.33,77.33,0,0,1,44,24c.39-.57.2-.38-.2-.19a83.26,83.26,0,0,0-6.26,6.06C35,32.67,32.49,35.7,32.1,36.27c-.78.94-1.76,1.13-2.35.56l-3.33-3a1.24,1.24,0,0,1-.16-1.74,1.21,1.21,0,0,1,.16-.16l14.1-12.48c.58-.38,1.17-.76,1.95,0l2.16,2.08a4.12,4.12,0,0,1,2.34-1,3.62,3.62,0,0,1,1.57.05V18.48c-1.17-1.14-1.37-3.78-.39-6.43C48.93,10,51.67,7.69,54,8.45c2.94,1,2.94,5.3,1,7.38a9.43,9.43,0,0,1-4.31,2.84v2.86c.45.26.85.52,1.18.74a9,9,0,0,1,1.76,6.63c-.78,4.35-5.09,9.08-7.44,11.34a26.12,26.12,0,0,1-7,4.55,14.89,14.89,0,0,1-4.56,1A1.66,1.66,0,0,1,33.47,45.54ZM56.76,30.21a1.5,1.5,0,0,1-1.37-1.51l.19-3.6a1.47,1.47,0,0,1,1.56-1.32l2.74-.37a1.44,1.44,0,0,1,1.38,1.32l-1,4.73a1.49,1.49,0,0,1-1.57,1.32Z"/><g id="Ellipse_673" data-name="Ellipse 673"><ellipse class="cls-2" cx="52.7" cy="11.63" rx="11.3" ry="11.17"/><ellipse class="cls-3" cx="52.7" cy="11.63" rx="9.91" ry="9.77"/></g></svg>