<svg xmlns="http://www.w3.org/2000/svg" xmlns:xlink="http://www.w3.org/1999/xlink" width="28" height="28" version="1.1" viewBox="0 0 28 28"><title>book-open</title><desc>Created with Sketch.</desc><g id="Home-page" fill="none" fill-rule="evenodd" stroke="none" stroke-linecap="round" stroke-linejoin="round" stroke-width="1"><g id="Home-page-/-Desktop-L" stroke="#000" stroke-width="1.3" transform="translate(-765.000000, -1284.000000)"><g id="Card/Resource-Copy-2" transform="translate(732.000000, 1240.000000)"><g id="book-open" transform="translate(34.000000, 45.000000)"><path id="Path" d="M12.9999998,4.5396 C12.9999998,2.1749 18.3843636,0.2327 24.7803636,0.0104 C25.1003012,-0.000867619795 25.4107095,0.131105748 25.6405915,0.376134966 C25.8704734,0.621164184 25.9999998,0.958288371 25.9999998,1.3104 L25.9999998,20.1604 C26.0002877,20.8634114 25.4924501,21.4393097 24.8536364,21.4604 C18.4257273,21.6684 12.9999998,23.6158 12.9999998,25.9896 C12.9999998,23.6158 7.57427273,21.6684 1.14636364,21.4578 C0.507549924,21.4367097 -0.000287658614,20.8608114 -1.55430066e-07,20.1578 L-1.55430066e-07,1.3104 C-1.55430066e-07,0.958288371 0.129526575,0.621164184 0.359408532,0.376134966 C0.58929049,0.131105748 0.899698775,-0.000867619795 1.21963636,0.0104 C7.61445455,0.2327 12.9999998,2.1749 12.9999998,4.5396 Z"/><path id="Path" d="M13,4.5396 L13,25.8271"/></g></g></g></g></svg>