<svg xmlns="http://www.w3.org/2000/svg" xmlns:xlink="http://www.w3.org/1999/xlink" width="32" height="22" version="1.1" viewBox="0 0 32 22"><title>check-double</title><desc>Created with Sketch.</desc><g id="Home-page" fill="none" fill-rule="evenodd" stroke="none" stroke-linecap="round" stroke-linejoin="round" stroke-width="1"><g id="Home-page-/-Desktop-L" stroke="#000" transform="translate(-1054.000000, -1287.000000)"><g id="Card/Resource-Copy-3" transform="translate(1023.000000, 1240.000000)"><g id="check-double" transform="translate(32.000000, 48.000000)"><path id="Path" d="M8.19462207,9.80481168 C8.49648841,9.50255385 8.90612897,9.33271605 9.33329392,9.33271605 C9.76045887,9.33271605 10.1700994,9.50255385 10.4719658,9.80481168 L13.3333121,12.667698 L25.5280342,0.472095621 C25.8299006,0.169837793 26.2395411,0 26.6667061,0 C27.093871,0 27.5035116,0.169837793 27.8053779,0.472095621 L29.5280524,2.19622791 C29.8302075,2.49788825 30,2.90733765 30,3.33431523 C30,3.7612928 29.8302075,4.1707422 29.5280524,4.47240255 L14.471984,19.5295578 C13.8424261,20.1568141 12.8241981,20.1568141 12.1946403,19.5295578 L6.47194757,13.8051186 C6.16979246,13.5034583 6,13.0940089 6,12.6670313 C6,12.2400537 6.16979246,11.8306043 6.47194757,11.528944 L8.19462207,9.80481168 Z"/><path id="Path" d="M4.93726597,10.7675702 L4.58333119,10.442564 C4.27394747,10.1592137 3.85410563,10 3.41630298,10 C2.97850034,10 2.5586585,10.1592137 2.24927478,10.442564 L0.483700487,12.0588445 C0.174020806,12.3416347 0,12.7254713 0,13.1257396 C0,13.526008 0.174020806,13.9098446 0.483700487,14.1926348 L6.34890548,19.558986 C6.9941412,20.1470047 8.03772618,20.1470047 8.68296189,19.558986 L9,19.2677305"/><path id="Path" d="M22,1.73046284 L21.6778673,1.44129134 C21.3635119,1.15875586 20.9369234,1 20.4920855,1 C20.0472476,1 19.6206592,1.15875586 19.3063038,1.44129134 L12,8"/></g></g></g></g></svg>