<?xml version="1.0" encoding="utf-8"?>
<!-- Generator: Adobe Illustrator 22.0.1, SVG Export Plug-In . SVG Version: 6.00 Build 0)  -->
<svg version="1.1" id="Logos" xmlns="http://www.w3.org/2000/svg" xmlns:xlink="http://www.w3.org/1999/xlink" x="0px" y="0px"
	 viewBox="0 0 192.5 193.8" style="enable-background:new 0 0 192.5 193.8;" xml:space="preserve">
<style type="text/css">
	.st0{fill:#FFFFFF;}
</style>
<g id="Group_2499" transform="translate(4545 -2725)">
	<path id="Union_3" class="st0" d="M-4470.3,2833.7l9.6,7.8l-84.3,77.3L-4470.3,2833.7z M-4430.9,2878.9l1.8-7.8
		c0.6-2.1,1.8-4.5,4.2-4.5l10.5-1.2c2.1-0.2,4,1.2,4.5,3.3c0,2.1-1.2,9.6-5.4,9.6l-11.1,3.3
		C-4428.8,2881.6-4431.6,2881.6-4430.9,2878.9z M-4444.8,2861.7c-5.4-4.5,6.3-27.4,9.3-33.1c6.6-11.1,14.1-21.6,22.3-31.6
		c1.2-1.8,0.6-1.2-0.6-0.6c-6.3,6-12.6,12-18.7,18.4c-7.5,8.4-15.1,17.5-16.3,19.3c-2.1,3-5.1,3.6-6.9,1.8l-9.9-9
		c-1.6-1.1-1.9-3.3-0.8-4.9c0.1-0.1,0.1-0.2,0.2-0.2c0.3-0.3,0.3-0.6,0.6-0.6l42.1-37.3c1.5-1.2,3.3-2.4,5.7,0l6.6,6.3
		c1.2-1.1,2.7-1.9,4.2-2.4c-15.6-11-19.3-32.6-8.3-48.2c11-15.6,32.6-19.3,48.2-8.3s19.3,32.6,8.3,48.2c-6.4,9.1-16.9,14.6-28,14.6
		c-0.4,0-0.9-0.1-1.2-0.3c3.4,5.4,4.8,11.8,3.9,18.1c-2.4,12.9-15.3,27.1-22.3,34c-6.3,5.6-13.4,10.2-21.1,13.6
		c-4.4,1.7-9.1,2.8-13.8,3c-0.3,0.1-0.7,0.1-1,0.1C-4443.1,2862.5-4444,2862.2-4444.8,2861.7L-4444.8,2861.7z M-4382.8,2750.9
		c8.7,3,8.7,16,3,22.3c-3.4,4-7.9,6.9-12.9,8.4v3c2,0.4,4,0.6,6,0.6c13.9,0.1,25.2-11.1,25.3-25c0-14-11.3-25.3-25.3-25.3
		s-25.3,11.3-25.3,25.3c0.1,9,5.1,17.3,12.9,21.6v-0.9c-3.9-5.7-4.4-13.1-1.2-19.3c2.3-6.2,7.9-10.6,14.5-11.3
		C-4384.7,2750.5-4383.7,2750.6-4382.8,2750.9z M-4374.6,2816c-2.4-0.2-4.2-2.1-4.2-4.5l0.6-10.8c0.2-2.4,2.4-4.2,4.8-3.9l0,0
		l8.4-1.2c2.2,0.1,4,1.9,3.9,4.2l0,0l-3,14.1c-0.4,2.4-2.4,4-4.8,3.9L-4374.6,2816z"/>
</g>
</svg>
