<svg xmlns="http://www.w3.org/2000/svg" xmlns:xlink="http://www.w3.org/1999/xlink" width="26" height="26" version="1.1" viewBox="0 0 26 26"><title>headphones-customer-support</title><desc>Created with Sketch.</desc><g id="Home-page" fill="none" fill-rule="evenodd" stroke="none" stroke-linecap="round" stroke-linejoin="round" stroke-width="1"><g id="Home-page-/-Desktop-L" stroke="#000" stroke-width="1.13" transform="translate(-475.000000, -1285.000000)"><g id="Card/Resource-Copy" transform="translate(441.000000, 1240.000000)"><g id="headphones-customer-support" transform="translate(34.000000, 45.000000)"><path id="Path" d="M17.3333333,24.3043478 L18.4166667,24.3043478 C20.5118333,24.3043478 22.2083333,23.0981739 22.2083333,20.9130435 L22.2083333,18.46"/><path id="Path" d="M21.125,9.6086945 C23.2365397,9.60713572 25.041741,11.1939103 25.3989459,13.3655003 C25.7561509,15.5370902 24.5613496,17.6611787 22.5701667,18.3944348 C22.2386511,18.5170146 21.8707395,18.4640299 21.5834368,18.2523312 C21.296134,18.0406325 21.1252015,17.6965704 21.125,17.3295652 L21.125,9.6086945 Z"/><path id="Path" d="M4.875,9.6086945 C2.76346034,9.60713572 0.958258995,11.1939103 0.601054051,13.3655003 C0.243849108,15.5370902 1.43865041,17.6611787 3.42983333,18.3944348 C3.76134888,18.5170146 4.12926051,18.4640299 4.41656323,18.2523312 C4.70386595,18.0406325 4.87479846,17.6965704 4.875,17.3295652 L4.875,9.6086945 Z"/><path id="Path" d="M21.125,11.3043478 L21.125,9.04347826 C21.125,4.36106408 17.4873136,0.565217391 13,0.565217391 C8.51268641,0.565217391 4.875,4.36106408 4.875,9.04347826 L4.875,11.3043478"/><path id="Path" d="M12.4583333,23.173913 L16.7916667,23.173913 C17.0908209,23.173913 17.3333333,23.4269695 17.3333333,23.7391304 L17.3333333,24.8695652 C17.3333333,25.1817262 17.0908209,25.4347826 16.7916667,25.4347826 L12.4583333,25.4347826 C11.8600249,25.4347826 11.375,24.9286697 11.375,24.3043478 L11.375,24.3043478 C11.375,23.6800259 11.8600249,23.173913 12.4583333,23.173913 Z"/></g></g></g></g></svg>