<svg xmlns="http://www.w3.org/2000/svg" xmlns:xlink="http://www.w3.org/1999/xlink" width="28" height="28" version="1.1" viewBox="0 0 28 28"><title>server-3</title><desc>Created with Sketch.</desc><g id="Home-page" fill="none" fill-rule="evenodd" stroke="none" stroke-linecap="round" stroke-linejoin="round" stroke-width="1"><g id="Home-page-/-Desktop-L" stroke="#000" stroke-width="1.444" transform="translate(-183.000000, -1284.000000)"><g id="Card/Resource" transform="translate(150.000000, 1237.000000)"><g id="server-3" transform="translate(34.000000, 48.000000)"><path id="Path" d="M25.4583333,14.4444444 C25.4583333,16.0399337 24.4882836,17.3333333 23.2916667,17.3333333 L2.70833333,17.3333333 C1.51171638,17.3333333 0.541666667,16.0399337 0.541666667,14.4444444 L0.541666667,11.5555556 C0.541666667,9.96006628 1.51171638,8.66666667 2.70833333,8.66666667 L23.2916667,8.66666667 C24.4882836,8.66666667 25.4583333,9.96006628 25.4583333,11.5555556 L25.4583333,14.4444444 Z"/><path id="Path" d="M5.14583333,12.6388889 C4.99625621,12.6388889 4.875,12.8005638 4.875,13 C4.875,13.1994362 4.99625621,13.3611111 5.14583333,13.3611111 C5.29541045,13.3611111 5.41666667,13.1994362 5.41666667,13 C5.41666667,12.8005638 5.29541045,12.6388889 5.14583333,12.6388889 L5.14583333,12.6388889"/><path id="Path" d="M8.9375,12.6388889 C8.78792288,12.6388889 8.66666667,12.8005638 8.66666667,13 C8.66666667,13.1994362 8.78792288,13.3611111 8.9375,13.3611111 C9.08707712,13.3611111 9.20833333,13.1994362 9.20833333,13 C9.20833333,12.8005638 9.08707712,12.6388889 8.9375,12.6388889 L8.9375,12.6388889"/><path id="Path" d="M25.4583333,5.77777778 C25.4583333,7.37326706 24.4882836,8.66666667 23.2916667,8.66666667 L2.70833333,8.66666667 C1.51171638,8.66666667 0.541666667,7.37326706 0.541666667,5.77777778 L0.541666667,2.88888889 C0.541666667,1.29339961 1.51171638,0 2.70833333,0 L23.2916667,0 C24.4882836,0 25.4583333,1.29339961 25.4583333,2.88888889 L25.4583333,5.77777778 Z"/><path id="Path" d="M5.14583333,3.97222222 C4.99625621,3.97222222 4.875,4.13389717 4.875,4.33333333 C4.875,4.53276949 4.99625621,4.69444444 5.14583333,4.69444444 C5.29541045,4.69444444 5.41666667,4.53276949 5.41666667,4.33333333 C5.41666667,4.13389717 5.29541045,3.97222222 5.14583333,3.97222222 L5.14583333,3.97222222"/><path id="Path" d="M8.9375,3.97222222 C8.78792288,3.97222222 8.66666667,4.13389717 8.66666667,4.33333333 C8.66666667,4.53276949 8.78792288,4.69444444 8.9375,4.69444444 C9.08707712,4.69444444 9.20833333,4.53276949 9.20833333,4.33333333 C9.20833333,4.13389717 9.08707712,3.97222222 8.9375,3.97222222 L8.9375,3.97222222"/><path id="Path" d="M25.4583333,23.1111111 C25.4583333,24.7066004 24.4882836,26 23.2916667,26 L2.70833333,26 C1.51171638,26 0.541666667,24.7066004 0.541666667,23.1111111 L0.541666667,20.2222222 C0.541666667,18.6267329 1.51171638,17.3333333 2.70833333,17.3333333 L23.2916667,17.3333333 C24.4882836,17.3333333 25.4583333,18.6267329 25.4583333,20.2222222 L25.4583333,23.1111111 Z"/><path id="Path" d="M5.14583333,21.3055556 C4.99625621,21.3055556 4.875,21.4672305 4.875,21.6666667 C4.875,21.8661028 4.99625621,22.0277778 5.14583333,22.0277778 C5.29541045,22.0277778 5.41666667,21.8661028 5.41666667,21.6666667 C5.41666667,21.4672305 5.29541045,21.3055556 5.14583333,21.3055556 L5.14583333,21.3055556"/><path id="Path" d="M8.9375,21.3055556 C8.78792288,21.3055556 8.66666667,21.4672305 8.66666667,21.6666667 C8.66666667,21.8661028 8.78792288,22.0277778 8.9375,22.0277778 C9.08707712,22.0277778 9.20833333,21.8661028 9.20833333,21.6666667 C9.20833333,21.4672305 9.08707712,21.3055556 8.9375,21.3055556 L8.9375,21.3055556"/></g></g></g></g></svg>